<svg id="Your_Dad_s_Fireworks" data-name="Your Dad’s Fireworks" xmlns="http://www.w3.org/2000/svg" viewBox="0 0 500 500"><defs><style>.cls-1{fill:#202d61;}.cls-2{fill:#232323;}.cls-3{fill:#383838;}.cls-4{fill:#bb1f40;}</style></defs><path class="cls-1" d="M219.62,112c0-.29,1-20,7.17-30.21a16.56,16.56,0,0,1,2.53-3.33A22.2,22.2,0,0,1,236.56,74c10.65-4.42,26.05-5.22,26.3-5.23h0c-.32,0-25.15-1.31-33.54-9.7s-9.68-33.22-9.7-33.54h0c0,.26-.89,17-5.83,27.67A20.44,20.44,0,0,1,209.92,59a20.77,20.77,0,0,1-6.14,4c-10.65,4.84-27.14,5.69-27.4,5.71h0c.32,0,25.16,1.31,33.54,9.7s9.68,33.22,9.7,33.54h0Z"/><path class="cls-1" d="M219.62,233.42c0-.28,1-19.95,7.17-30.2a16.92,16.92,0,0,1,2.53-3.34,22.36,22.36,0,0,1,7.24-4.46c10.65-4.42,26.05-5.22,26.3-5.24h0c-.32,0-25.15-1.31-33.54-9.69s-9.68-33.22-9.7-33.55h0c0,.27-.89,17-5.83,27.67a20.5,20.5,0,0,1-3.87,5.88,21,21,0,0,1-6.14,4c-10.65,4.83-27.14,5.69-27.4,5.7h0c.32,0,25.16,1.31,33.54,9.7s9.68,33.22,9.7,33.54h0Z"/><path class="cls-1" d="M101.53,112c0-.29,1-20,7.17-30.21a16.56,16.56,0,0,1,2.53-3.33A22.2,22.2,0,0,1,118.47,74c10.65-4.42,26.05-5.22,26.3-5.23h0c-.32,0-25.15-1.31-33.54-9.7s-9.68-33.22-9.7-33.54h0c0,.26-.88,17-5.83,27.67A20.63,20.63,0,0,1,91.84,59a20.82,20.82,0,0,1-6.15,4C75,67.85,58.56,68.7,58.29,68.72h0c.33,0,25.16,1.31,33.55,9.7s9.68,33.22,9.69,33.54h0Z"/><path class="cls-2" d="M136,398.7a198.14,198.14,0,0,1-56.5-184.24A198.34,198.34,0,0,0,125,433.81c78.92,75.9,204.43,73.45,280.33-5.47a197.28,197.28,0,0,0,51-96.09,197.77,197.77,0,0,1-40.08,61C340.38,472.15,214.87,474.6,136,398.7Z"/><path class="cls-3" d="M238.29,385a137,137,0,0,1-85.8-102A137.11,137.11,0,1,0,424.2,256,137.17,137.17,0,0,1,238.29,385Z"/><path class="cls-1" d="M126.28,165.78c-2.76-2.66-6.89-5.21-12.28-7.59l-.7-.3a198.37,198.37,0,0,0,97,264.2,198.48,198.48,0,0,1-71-232,105.55,105.55,0,0,0-4.71-11.76C132,172.78,129.15,168.54,126.28,165.78Z"/><path class="cls-4" d="M279.8,126.61c-.79,0-54.55-1.77-82.87-18a47.12,47.12,0,0,1-9.24-6.74c-5-4.81-9.14-11.69-12.58-19.54-12.62-28.84-15.63-70.84-15.68-71.53v0h0v0c0,.88-2.24,68.75-24.7,92.1s-90.19,28.2-91.07,28.27h0c.73,0,46.54,1.51,75.86,14.45,6.42,2.83,12,6.21,16.25,10.24,4.35,4.19,8.06,10,11.22,16.56,13.77,28.83,17,73.8,17,74.51v0h0v0c0-.88,2.24-68.75,24.69-92.1s90.2-28.21,91.08-28.27h0Z"/><path class="cls-4" d="M352.4,170.28a107.46,107.46,0,0,0-123.86-4c.4,1.43.85,2.78,1.34,4Z"/><path class="cls-4" d="M227.37,219H388.51a106.81,106.81,0,0,0-11.89-23.18H263.34S236.87,195.77,227.37,219Z"/><path class="cls-4" d="M196.34,199.29A106.64,106.64,0,0,0,186.71,219h25.18c-1.33-6.3-3.33-12.27-6-15C203.94,202.06,200.43,200.51,196.34,199.29Z"/><path class="cls-4" d="M395,252.74q-.14-4.2-.57-8.3H180.75a109.31,109.31,0,0,0-.57,14.87q.13,4.2.57,8.3H394.47A109.37,109.37,0,0,0,395,252.74Z"/><path class="cls-4" d="M198.6,316.28h178a107.57,107.57,0,0,0,11.91-23.18H186.7A107.29,107.29,0,0,0,198.6,316.28Z"/><path class="cls-4" d="M290.89,363.45a107,107,0,0,0,61.54-21.68H222.81A107,107,0,0,0,290.89,363.45Z"/></svg>